<?xml version="1.0" standalone="no"?><!DOCTYPE svg PUBLIC "-//W3C//DTD SVG 1.1//EN" "http://www.w3.org/Graphics/SVG/1.1/DTD/svg11.dtd"><svg t="1607333142162" class="icon" viewBox="0 0 1024 1024" version="1.1" xmlns="http://www.w3.org/2000/svg" p-id="42978" width="128" height="128" xmlns:xlink="http://www.w3.org/1999/xlink"><defs><style type="text/css"></style></defs><path d="M512.1 47.99c22.895 0 45.99 9.718 68.655 28.883 25.135 21.256 49.15 53.989 69.445 94.53 21.686 43.36 38.782 94.23 50.83 151.188 12.657 59.857 19.075 123.553 19.075 189.339s-6.418 129.482-19.076 189.34c-12.067 56.947-29.153 107.776-50.839 151.177-20.295 40.581-44.31 73.274-69.435 94.57C558.1 966.182 535.005 975.9 512.1 975.9s-45.99-9.718-68.655-28.883c-25.135-21.256-49.14-53.989-69.445-94.53-21.686-43.36-38.782-94.23-50.83-151.188-12.657-59.897-19.125-123.593-19.125-189.379s6.418-129.482 19.076-189.34c12.047-56.987 29.153-107.826 50.829-151.187 20.295-40.591 44.31-73.274 69.445-94.53C466.1 57.708 489.205 47.99 512.1 47.99m0-47.99C370.72 0 256.155 229.2 256.155 511.89S370.77 1023.78 512.1 1023.78s255.945-229.2 255.945-511.89S653.43 0 512.1 0z" p-id="42979"></path><path d="M512.1 47.99c22.895 0 45.99 9.718 68.655 28.883 25.135 21.256 49.15 53.989 69.445 94.53 21.686 43.36 38.782 94.23 50.83 151.188 12.657 59.857 19.075 123.553 19.075 189.339s-6.418 129.482-19.076 189.34c-12.067 56.947-29.153 107.776-50.839 151.177-20.295 40.581-44.31 73.274-69.435 94.57C558.1 966.182 535.005 975.9 512.1 975.9s-45.99-9.718-68.655-28.883c-25.135-21.256-49.14-53.989-69.445-94.53-21.686-43.36-38.782-94.23-50.83-151.188-12.657-59.897-19.125-123.593-19.125-189.379s6.418-129.482 19.076-189.34c12.047-56.987 29.153-107.826 50.829-151.187 20.295-40.591 44.31-73.274 69.445-94.53C466.1 57.708 489.205 47.99 512.1 47.99m0-47.99C370.72 0 256.155 229.2 256.155 511.89S370.77 1023.78 512.1 1023.78s255.945-229.2 255.945-511.89S653.43 0 512.1 0z" p-id="42980"></path><path d="M260.624 221.282c104.278 0 233.84 40.282 355.474 110.507 56.987 32.893 108.926 70.295 154.426 111.186 43.311 38.921 78.814 79.133 105.528 119.614 24.994 37.872 41.3 74.984 47.15 107.407 5.269 29.204 2.13 54.068-9.318 73.894-10.298 17.836-27.544 31.923-51.27 41.881-26.564 11.148-59.876 16.797-98.978 16.797-104.288 0-233.86-40.282-355.494-110.507-56.987-32.893-108.926-70.295-154.427-111.186-43.31-38.911-78.803-79.163-105.517-119.614-24.994-37.872-41.301-74.984-47.15-107.407-5.269-29.204-2.13-54.068 9.318-73.894 10.298-17.836 27.544-31.923 51.27-41.881 26.564-11.148 59.886-16.797 99.028-16.797m0-47.99c-89.79 0-159.826 27.195-191.849 82.673C-1.89 378.399 139.25 592.263 384.097 733.622 518.02 810.936 655.19 850.597 763.586 850.597c89.79 0 159.826-27.194 191.849-82.672 70.695-122.474-70.515-336.338-315.343-477.697-133.92-77.314-271.091-116.975-379.488-116.975z" p-id="42981"></path><path d="M763.616 221.282c39.142 0 72.444 5.65 98.979 16.797 23.715 9.998 40.99 23.995 51.259 41.88 11.447 19.827 14.587 44.691 9.318 73.895-5.84 32.393-22.146 69.535-47.15 107.407-26.704 40.461-62.207 80.703-105.518 119.614-45.48 40.891-97.439 78.293-154.406 111.196-121.634 70.215-251.206 110.497-355.484 110.497-39.152 0-72.464-5.65-98.979-16.797-23.715-9.998-40.99-23.995-51.269-41.88-11.447-19.827-14.587-44.691-9.318-73.895 5.839-32.393 22.146-69.535 47.15-107.407 26.664-40.481 62.167-80.693 105.468-119.614 45.51-40.891 97.459-78.303 154.426-111.186 121.634-70.225 251.206-110.497 355.504-110.507m0-47.99c-108.387 0-245.587 39.622-379.489 116.976C139.25 431.588-1.89 645.45 68.755 767.885c31.993 55.478 102.048 82.672 191.849 82.672 108.387 0 245.587-39.621 379.488-116.975C884.92 592.262 1026.13 378.4 955.445 255.965c-31.993-55.478-102.048-82.672-191.85-82.672z" p-id="42982"></path><path d="M480.007 536.105H352.034a23.995 23.995 0 0 1 0-47.99h127.973a23.995 23.995 0 0 1 0 47.99z" p-id="42983"></path><path d="M416.02 600.091a23.995 23.995 0 0 1-23.994-23.995V448.124a23.995 23.995 0 0 1 47.99 0v127.972a23.995 23.995 0 0 1-23.995 23.995z m255.946-63.986h-95.98a23.995 23.995 0 0 1 0-47.99h95.98a23.995 23.995 0 0 1 0 47.99z" p-id="42984"></path></svg>