<?xml version="1.0" standalone="no"?><!DOCTYPE svg PUBLIC "-//W3C//DTD SVG 1.1//EN" "http://www.w3.org/Graphics/SVG/1.1/DTD/svg11.dtd"><svg t="1607582820412" class="icon" viewBox="0 0 1024 1024" version="1.1" xmlns="http://www.w3.org/2000/svg" p-id="38590" xmlns:xlink="http://www.w3.org/1999/xlink" width="128" height="128"><defs><style type="text/css"></style></defs><path d="M709.745792 884.5824H250.737792a43.6736 43.6736 0 1 1 0-87.3472h459.008a43.6736 43.6736 0 1 1 0 87.3472z" p-id="38591"></path><path d="M895.422592 40.192a45.9008 45.9008 0 0 0-33.9712 45.8752V832a97.6128 97.6128 0 0 1-94.4384 100.5056H194.878592a33.28 33.28 0 0 1-32.128-34.2016V770.56a32.7936 32.7936 0 0 1 31.6928-33.7408h408.0128a178.944 178.944 0 0 0 173.1328-184.32V138.5216A134.5536 134.5536 0 0 0 645.438592 0H206.936192A134.5536 134.5536 0 0 0 76.785792 138.5216v759.9104A122.0096 122.0096 0 0 0 194.776192 1024h572.1344a186.3424 186.3424 0 0 0 180.3008-192V84.9152a43.52 43.52 0 0 0-51.7632-44.6976z" p-id="38592"></path></svg>