<?xml version="1.0" standalone="no"?><!DOCTYPE svg PUBLIC "-//W3C//DTD SVG 1.1//EN" "http://www.w3.org/Graphics/SVG/1.1/DTD/svg11.dtd"><svg t="1607332088285" class="icon" viewBox="0 0 1024 1024" version="1.1" xmlns="http://www.w3.org/2000/svg" p-id="36345" xmlns:xlink="http://www.w3.org/1999/xlink" width="200" height="200"><defs><style type="text/css"></style></defs><path d="M511.72 176.21c138.073 0 252.97 99.231 277.265 230.268C886.83 430.425 959.44 518.698 959.44 623.93c0 121.174-96.276 219.862-216.507 223.742l-3.714 0.089 0.001 0.029H282.714l-0.002-0.058C161.455 844.996 64 745.844 64 623.93c0-105.232 72.61-193.505 170.462-217.452C258.75 275.441 373.646 176.21 511.72 176.21z m180.886 269.128c-11.91-11.911-31.222-11.911-43.133 0L451.084 643.725 342.951 535.592c-11.911-11.91-31.223-11.91-43.134 0-11.91 11.911-11.91 31.223 0 43.134l129.401 129.4a30.75 30.75 0 0 0 3.644 3.118c11.946 8.956 28.97 8.002 39.834-2.863l219.91-219.91c11.911-11.91 11.911-31.222 0-43.133z" fill="#262A30" p-id="36346"></path></svg>