<?xml version="1.0" standalone="no"?><!DOCTYPE svg PUBLIC "-//W3C//DTD SVG 1.1//EN" "http://www.w3.org/Graphics/SVG/1.1/DTD/svg11.dtd"><svg t="1607584821031" class="icon" viewBox="0 0 1024 1024" version="1.1" xmlns="http://www.w3.org/2000/svg" p-id="60564" xmlns:xlink="http://www.w3.org/1999/xlink" width="128" height="128"><defs><style type="text/css"></style></defs><path d="M512 896a589.312 589.312 0 0 1-95.744-8.192L192 1024v-226.816A429.056 429.056 0 0 1 0 448C0 200.704 229.376 0 512 0s512 200.704 512 448-229.376 448-512 448z m0-832c-247.296 0-448 172.032-448 384A371.712 371.712 0 0 0 256 762.368v148.48L403.968 819.2a498.688 498.688 0 0 0 108.032 11.776c247.296 0 448-172.032 448-384S759.296 64 512 64z" p-id="60565"></path></svg>