<?xml version="1.0" standalone="no"?><!DOCTYPE svg PUBLIC "-//W3C//DTD SVG 1.1//EN" "http://www.w3.org/Graphics/SVG/1.1/DTD/svg11.dtd"><svg t="1607583256426" class="icon" viewBox="0 0 1024 1024" version="1.1" xmlns="http://www.w3.org/2000/svg" p-id="41211" xmlns:xlink="http://www.w3.org/1999/xlink" width="128" height="128"><defs><style type="text/css"></style></defs><path d="M551.14984328 242.59513738l-20.28990597 6.763302c-11.27216999 4.50886799-23.67155697 0-31.56207596-9.017736-7.89051899-10.14495299-16.90825497-19.16268897-25.92599096-27.05320796-9.01773598-7.89051899-12.39938698-20.28990597-7.89051899-31.56207595l7.89051899-19.16268898c5.63608499-14.65382098-1.12721701-30.43485896-14.65382098-36.07094395l-21.41712297-9.01773598-21.41712296-10.14495298c-13.52660398-5.63608499-30.43485896 0-37.19816095 13.52660398l-9.01773598 19.16268896c-5.63608499 11.27216999-16.90825497 16.90825497-29.30764197 15.78103798-12.39938698-1.12721701-24.79877397-1.12721701-37.19816095-1.127217-12.39938698 1.12721701-23.67155697-5.63608499-28.18042495-16.90825497l-7.89051899-19.16268897c-5.63608499-13.52660398-22.54433996-20.28990597-36.07094395-14.65382098l-21.41712298 7.89051898-21.41712297 7.89051899c-14.65382098 5.63608499-21.41712298 21.41712298-16.90825497 36.07094395l6.76330198 20.28990597c4.50886799 11.27216999 0 23.67155697-9.01773598 31.56207596-10.14495299 7.89051899-19.16268897 16.90825497-27.05320795 25.92599096-7.89051899 9.01773598-20.28990597 12.39938698-31.56207597 7.890519l-21.41712296-7.890519c-14.65382098-5.63608499-30.43485896 1.12721701-36.07094396 14.65382098L43.902194 269.64834535l-9.01773599 21.41712296c-5.63608499 13.52660398 0 30.43485896 13.52660399 37.19816095l19.16268897 9.01773599c11.27216999 5.63608499 16.90825497 16.90825497 15.78103797 29.30764196-1.12721701 12.39938698-1.12721701 24.79877397-1.12721699 37.19816094 1.12721701 12.39938698-5.63608499 23.67155697-16.90825498 28.18042496l-19.16268898 7.89051899c-13.52660398 5.63608499-20.28990597 22.54433996-14.65382097 36.07094395l7.89051899 21.41712297 7.89051898 21.41712297c5.63608499 14.65382098 21.41712298 21.41712298 36.07094395 16.90825498l20.28990597-6.763302c11.27216999-4.50886799 23.67155697 0 31.56207596 9.01773599 7.89051899 10.14495299 16.90825497 19.16268897 25.92599096 27.05320796 9.01773598 7.89051899 12.39938698 20.28990597 7.89051899 31.56207596l-7.89051899 19.16268897c-5.63608499 14.65382098 1.12721701 30.43485896 14.65382098 36.07094395l21.41712298 9.01773599 21.41712296 9.01773598c13.52660398 5.63608499 30.43485896 0 37.19816095-13.52660397l9.017736-19.16268898c5.63608499-11.27216999 16.90825497-16.90825497 29.30764194-15.78103797 12.39938698 1.12721701 24.79877397 1.12721701 37.19816096 1.12721699 12.39938698-1.12721701 23.67155697 5.63608499 28.18042496 16.90825497l7.89051898 19.16268899c5.63608499 13.52660398 22.54433996 20.28990597 36.07094395 14.65382097l21.41712297-7.89051899 21.41712297-7.89051899c14.65382098-5.63608499 21.41712298-21.41712298 16.90825498-36.07094394l-6.76330199-20.28990598c-4.50886799-11.27216999 0-23.67155697 9.01773598-31.56207595 10.14495299-7.89051899 19.16268897-16.90825497 27.05320796-25.92599096 7.89051899-9.01773598 20.28990597-12.39938698 31.56207596-7.89051899l19.16268897 7.89051899c14.65382098 5.63608499 30.43485896-1.12721701 36.07094396-14.65382099l9.01773598-21.41712296 9.01773599-21.41712297c5.63608499-13.52660398 0-30.43485896-13.52660399-37.19816094l-19.16268896-9.017736c-11.27216999-5.63608499-16.90825497-16.90825497-15.78103798-29.30764195 1.12721701-12.39938698 1.12721701-24.79877397 1.12721699-37.19816095-1.12721701-12.39938698 5.63608499-23.67155697 16.90825498-28.18042497l19.16268897-7.89051898c13.52660398-5.63608499 20.28990597-22.54433996 14.65382097-36.07094396l-7.89051897-21.41712295-7.89051899-21.41712298c-3.381651-13.52660398-19.16268897-20.28990597-33.81650996-15.78103798zM357.26851955 493.96452802c-57.48806692 22.54433996-122.86665283-5.63608499-145.41099279-63.1241519s5.63608499-122.86665283 63.12415192-145.4109928 122.86665283 5.63608499 145.41099279 63.12415191-5.63608499 122.86665283-63.12415192 145.41099279zM981.74673668 569.48806692l-14.65382099-1.127217c-7.89051899-1.12721701-14.65382098-6.76330199-18.03547198-14.65382097-2.25443399-7.89051899-5.63608499-16.90825497-9.01773598-23.67155697-3.381651-7.89051899-2.25443399-16.90825497 3.381651-22.54433997l10.14495299-10.14495299c7.89051899-7.89051899 7.89051899-19.16268897 0-27.05320797l-11.27217-11.27216997-11.27216997-11.27216999c-6.76330199-7.89051899-19.16268897-7.89051899-27.05320796-1.127217l-11.27217 9.01773599c-6.76330199 5.63608499-15.78103798 6.76330199-22.54433996 2.254434-7.89051899-4.50886799-15.78103798-7.89051899-23.67155696-10.14495299-7.89051899-2.25443399-13.52660398-10.14495299-13.52660398-18.03547198v-14.65382097c0-10.14495299-9.01773598-19.16268897-19.16268899-19.16268898h-31.56207594c-10.14495299 0-19.16268897 7.89051899-20.28990597 18.03547198l-1.127217 14.65382099c-1.12721701 7.89051899-6.76330199 14.65382098-14.65382098 18.03547196-7.89051899 2.25443399-16.90825497 5.63608499-23.67155697 9.01773599-7.89051899 3.381651-16.90825497 2.25443399-22.54433997-3.381651l-10.14495298-10.14495298c-7.89051899-7.89051899-19.16268897-7.89051899-27.05320797 0l-11.27216998 11.27216998-11.27216998 11.27216998c-7.89051899 6.76330199-7.89051899 19.16268897-1.12721701 27.05320797l9.01773599 11.27216999c5.63608499 6.76330199 6.76330199 15.78103798 2.254434 22.54433996-4.50886799 7.89051899-7.89051899 15.78103798-10.14495298 23.67155696-2.25443399 7.89051899-10.14495299 13.52660398-18.03547198 13.52660399H607.5106932c-10.14495299 0-19.16268897 9.01773598-19.16268897 19.16268897V613.44952985c0 10.14495299 7.89051899 19.16268897 18.03547197 20.28990597l14.65382098 1.12721701c7.89051899 1.12721701 14.65382098 6.76330199 18.03547197 14.65382097 2.25443399 7.89051899 5.63608499 16.90825497 9.01773599 23.67155697 3.381651 7.89051899 2.25443399 16.90825497-3.381651 22.54433997l-10.14495298 10.14495299c-7.89051899 7.89051899-7.89051899 19.16268897 0 27.05320796l11.27216999 11.27216997 11.27216998 11.27217c6.76330199 7.89051899 19.16268897 7.89051899 27.05320797 1.127217l11.27216997-9.017736c6.76330199-5.63608499 15.78103798-6.76330199 22.54433998-2.25443399 7.89051899 4.50886799 15.78103798 7.89051899 23.67155696 10.14495299 7.89051899 2.25443399 13.52660398 10.14495299 13.52660399 18.03547197v14.65382097c0 10.14495299 9.01773598 19.16268897 19.16268897 19.16268899h31.56207595c10.14495299 0 19.16268897-7.89051899 20.28990597-18.03547198l1.127217-14.65382099c1.12721701-7.89051899 6.76330199-14.65382098 14.65382098-18.03547196 7.89051899-2.25443399 16.90825497-5.63608499 23.67155697-9.017736 7.89051899-3.381651 16.90825497-2.25443399 22.54433996 3.381651l10.14495298 10.14495299c7.89051899 7.89051899 19.16268897 7.89051899 27.05320797 0l11.27216998-11.27216998 11.27216999-11.27216999c7.89051899-6.76330199 7.89051899-19.16268897 1.12721699-27.05320796l-9.01773598-11.27216999c-5.63608499-6.76330199-6.76330199-15.78103798-2.25443399-22.54433997 4.50886799-7.89051899 7.89051899-15.78103798 10.14495298-23.67155696 2.25443399-7.89051899 10.14495299-13.52660398 18.03547197-13.52660398h14.65382098c10.14495299 0 19.16268897-9.01773598 19.16268898-19.16268897v-31.56207596c0-11.27216999-7.89051899-20.28990597-18.03547197-20.28990597z m-190.49967274 107.08561485c-42.83424593-1.12721701-75.5235389-37.19816094-74.39632189-78.90518988 1.12721701-42.83424593 37.19816094-75.5235389 78.90518989-74.3963219 42.83424593 1.12721701 75.5235389 37.19816094 74.39632189 78.90518988 0 41.70702895-36.07094395 75.5235389-78.90518989 74.3963219zM630.05503317 771.25990963l-9.01773599-1.12721699c-5.63608499 0-9.01773598-4.50886799-11.27216998-9.01773599-1.12721701-5.63608499-3.381651-10.14495299-5.636085-14.65382098s-1.12721701-10.14495299 2.254434-13.52660398l6.763302-6.76330199c4.50886799-4.50886799 4.50886799-12.39938698 0-16.90825498l-6.763302-6.76330198-6.76330198-6.763302c-4.50886799-4.50886799-12.39938698-5.63608499-16.90825498-1.127217l-6.76330199 5.63608499c-3.381651 3.381651-9.01773598 3.381651-13.52660398 1.127217-4.50886799-2.25443399-9.01773598-4.50886799-14.65382098-6.76330199-4.50886799-2.25443399-7.89051899-6.76330199-7.890519-11.27216999v-9.01773598c0-6.76330199-5.63608499-12.39938698-12.39938697-12.39938698h-20.28990598c-6.76330199 0-12.39938698 4.50886799-12.39938697 11.27216998l-1.12721701 9.017736c0 5.63608499-4.50886799 9.01773598-9.01773598 11.27216997-5.63608499 1.12721701-10.14495299 3.381651-14.65382099 5.636085s-10.14495299 1.12721701-13.52660397-2.254434l-6.763302-6.763302c-4.50886799-4.50886799-12.39938698-4.50886799-16.90825497 0l-6.76330199 6.763302-7.89051899 6.76330198c-4.50886799 4.50886799-5.63608499 12.39938698-1.127217 16.90825499l5.63608499 6.76330198c3.381651 3.381651 3.381651 9.01773598 1.12721701 13.52660399-2.25443399 4.50886799-4.50886799 9.01773598-6.763302 14.65382098-2.25443399 4.50886799-6.76330199 7.89051899-11.27216998 7.89051899h-9.01773599c-6.76330199 0-12.39938698 5.63608499-12.39938698 12.39938698v20.28990597c0 6.76330199 4.50886799 12.39938698 11.27216999 12.39938697l9.01773598 1.12721701c5.63608499 0 9.01773598 4.50886799 11.27216999 9.01773598 1.12721701 5.63608499 3.381651 10.14495299 5.63608498 14.65382099s1.12721701 10.14495299-2.25443399 13.52660397l-6.76330199 6.763302c-4.50886799 4.50886799-4.50886799 12.39938698 0 16.90825497l6.76330199 6.76330199 6.76330199 6.763302c4.50886799 4.50886799 12.39938698 5.63608499 16.90825497 1.12721699l6.76330199-5.63608499c3.381651-3.381651 9.01773598-3.381651 13.52660399-1.127217 4.50886799 2.25443399 9.01773598 4.50886799 14.65382098 6.76330199 4.50886799 2.25443399 7.89051899 6.76330199 7.89051898 11.27216998v9.01773599c0 6.76330199 5.63608499 12.39938698 12.39938699 12.39938699h20.28990598c6.76330199 0 12.39938698-4.50886799 12.39938697-11.27216999l1.127217-9.01773598c0-5.63608499 4.50886799-9.01773598 9.01773599-11.27216999 5.63608499-1.12721701 10.14495299-3.381651 14.65382098-5.63608499s10.14495299-1.12721701 13.52660398 2.25443399l6.76330199 6.763302c4.50886799 4.50886799 12.39938698 4.50886799 16.90825498 0l6.76330199-6.763302 6.76330198-6.76330199c4.50886799-4.50886799 5.63608499-12.39938698 1.127217-16.90825498l-5.63608499-6.76330199c-3.381651-3.381651-3.381651-9.01773598-1.12721701-13.52660398 2.25443399-4.50886799 4.50886799-9.01773598 6.763302-14.65382097 2.25443399-4.50886799 6.76330199-7.89051899 11.27216998-7.89051899h9.01773599c6.76330199 0 12.39938698-5.63608499 12.39938699-12.39938698v-20.28990597c1.12721701-6.76330199-3.381651-12.39938698-10.14495299-12.39938699z m-118.35778483 66.50580291c-25.92599096-1.12721701-47.34311394-22.54433996-46.21589694-49.59754794s22.54433996-47.34311394 49.59754794-46.21589693c25.92599096 1.12721701 47.34311394 22.54433996 46.21589693 49.59754793-1.12721701 25.92599096-22.54433996 47.34311394-49.59754793 46.21589694z" fill="#515151" p-id="41212"></path></svg>