<?xml version="1.0" standalone="no"?><!DOCTYPE svg PUBLIC "-//W3C//DTD SVG 1.1//EN" "http://www.w3.org/Graphics/SVG/1.1/DTD/svg11.dtd"><svg t="1608018581883" class="icon" viewBox="0 0 1024 1024" version="1.1" xmlns="http://www.w3.org/2000/svg" p-id="3665" xmlns:xlink="http://www.w3.org/1999/xlink" width="128" height="128"><defs><style type="text/css"></style></defs><path d="M261.738188 19.710357C329.145905 6.655445 402.44113 0 481.623865 0c79.268061 0 152.563286 6.655445 220.056328 19.710357 67.407716 13.054912 120.736605 30.973419 159.901342 53.499542 39.250062 22.526123 58.875094 46.844096 58.875094 73.209899v73.2099c0 26.365803-19.539705 50.683776-58.875094 73.209899-39.250062 22.526123-92.493626 40.359303-159.986668 53.499541-67.407716 12.88426-140.788268 19.454379-219.971002 19.454379-79.182735 0-152.563286-6.655445-219.971003-19.710357-67.493042-13.054912-120.907258-30.973419-160.071994-53.499542-39.250062-22.526123-58.875094-46.844096-58.875093-73.209899v-73.209899c0-26.365803 19.625031-50.683776 58.875093-73.209899 39.335389-22.270144 92.578952-40.103325 160.071994-53.243564z m-33.106574 394.463129a1237.230231 1237.230231 0 0 0 253.077577 24.573952 1237.230231 1237.230231 0 0 0 253.077577-24.573952c78.414799-16.382635 140.361637-40.615282 185.669861-72.52729v97.101242c0 26.365803-19.625031 50.683776-58.875094 73.209899-39.250062 22.526123-92.578952 40.359303-159.986668 53.499542-67.32239 13.054912-140.702941 19.625031-219.885676 19.625031-79.182735 0-152.563286-6.740772-219.971003-19.795684-67.493042-12.969586-120.907258-30.888093-160.071994-53.499542-39.250062-22.526123-58.875094-46.844096-58.875093-73.124573V341.475544c45.478877 32.253312 107.425715 56.48596 185.925839 72.697942z m0 219.459045a1237.230231 1237.230231 0 0 0 253.077577 24.573952 1237.230231 1237.230231 0 0 0 253.077577-24.573952c78.414799-16.382635 140.361637-40.529956 185.669861-72.52729v97.186568c0 26.365803-19.625031 50.683776-58.875094 73.124573-39.250062 22.526123-92.578952 40.359303-159.986668 53.584868a1146.784435 1146.784435 0 0 1-219.885676 19.625031c-79.182735 0-152.563286-6.655445-219.971003-19.625031-67.493042-13.054912-120.736605-31.058745-160.071994-53.499542-39.250062-22.526123-58.875094-46.929423-58.875093-73.295225V561.190567c45.478877 31.997334 107.425715 56.229981 185.925839 72.52729z m0 219.459045a1237.230231 1237.230231 0 0 0 253.077577 24.573952 1237.230231 1237.230231 0 0 0 253.077577-24.573952c78.414799-16.382635 140.361637-40.615282 185.669861-72.612616v97.186568c0 26.365803-19.625031 50.683776-58.875094 73.124573-39.250062 22.526123-92.578952 40.359303-159.986668 53.499542-67.407716 13.225565-140.702941 19.625031-219.885676 19.625031-79.182735 0-152.563286-6.655445-219.971003-19.710358-67.493042-13.054912-120.907258-30.973419-160.071994-53.499541-39.250062-22.526123-58.875094-46.844096-58.875093-73.2099V780.308308c45.478877 32.167986 107.425715 56.315307 185.925839 72.783268z" p-id="3666"></path></svg>