<?xml version="1.0" standalone="no"?><!DOCTYPE svg PUBLIC "-//W3C//DTD SVG 1.1//EN" "http://www.w3.org/Graphics/SVG/1.1/DTD/svg11.dtd"><svg t="1607571923332" class="icon" viewBox="0 0 1024 1024" version="1.1" xmlns="http://www.w3.org/2000/svg" p-id="30438" width="128" height="128" xmlns:xlink="http://www.w3.org/1999/xlink"><defs><style type="text/css"></style></defs><path d="M704.261224 121.208163c14.628571-10.44898 35.526531-10.44898 50.155103 0l163.004081 121.208164c10.44898 8.359184 16.718367 20.897959 16.718368 33.436734v551.706123c0 4.179592-2.089796 8.359184-4.179592 12.538775-6.269388 8.359184-20.897959 10.44898-29.257143 4.179592l-171.363265-129.567347L543.346939 856.816327c-10.44898 8.359184-27.167347 10.44898-39.706123 6.269387L319.738776 794.122449 146.285714 900.702041c-4.179592 2.089796-6.269388 4.179592-10.448979 4.179592-12.538776 0-20.897959-8.359184-20.897959-20.89796V330.187755c0-14.628571 8.359184-27.167347 18.808163-35.526531l167.183673-104.489795c10.44898-6.269388 25.077551-8.359184 37.616327-4.179592l185.991837 68.963265 179.722448-133.746939zM344.816327 357.355102c-14.628571 0-25.077551 10.44898-25.077551 25.077551v254.955102c0 14.628571 10.44898 25.077551 25.077551 25.077551s25.077551-10.44898 25.077551-25.077551V384.522449c2.089796-16.718367-8.359184-27.167347-25.077551-27.167347z m179.722449 102.4v154.644898c0 14.628571 10.44898 25.077551 25.077551 25.077551s25.077551-10.44898 25.077551-25.077551V459.755102c0-14.628571-10.44898-25.077551-25.077551-25.077551s-25.077551 10.44898-25.077551 25.077551z m204.8 77.322449c0 14.628571 10.44898 25.077551 25.077551 25.077551s25.077551-10.44898 25.077551-25.077551v-204.8c0-14.628571-10.44898-25.077551-25.077551-25.077551s-25.077551 10.44898-25.077551 25.077551v204.8z" p-id="30439"></path></svg>