<?xml version="1.0" standalone="no"?><!DOCTYPE svg PUBLIC "-//W3C//DTD SVG 1.1//EN" "http://www.w3.org/Graphics/SVG/1.1/DTD/svg11.dtd"><svg t="1607584417774" class="icon" viewBox="0 0 1024 1024" version="1.1" xmlns="http://www.w3.org/2000/svg" p-id="52410" xmlns:xlink="http://www.w3.org/1999/xlink" width="128" height="128"><defs><style type="text/css"></style></defs><path d="" p-id="52411"></path><path d="M1006.782 96.902l-80.599-80.609c-18.571-18.298-48.262-18.298-66.556 0l-84.329 84.32 147.165 147.165 84.32-84.063c18.302-18.822 18.302-48.519 0-66.813v0 0zM750.38 125.798l-456.068 470.653-37.382 169.707 169.696-37.393 468.265-458.719-144.51-144.247zM850.874 511.603v397.734c0 13.526-10.336 26.784-24.39 26.784s-713.274-0.268-713.274-0.268c-14.847 0-25.988-14.318-25.988-26.517v-710.619c0-13.259 12.461-26.517 28.11-26.517h396.141l84.849-84.848h-531.897c-34.474 0-62.050 27.312-62.050 61.783v809.525c0 34.198 27.841 62.041 62.050 62.041h809.521c34.204 0 61.778-27.841 61.778-62.041v-531.905l-84.848 84.846zM850.874 511.603z" p-id="52412"></path></svg>