<?xml version="1.0" standalone="no"?><!DOCTYPE svg PUBLIC "-//W3C//DTD SVG 1.1//EN" "http://www.w3.org/Graphics/SVG/1.1/DTD/svg11.dtd"><svg t="1607583406377" class="icon" viewBox="0 0 1092 1024" version="1.1" xmlns="http://www.w3.org/2000/svg" p-id="41957" xmlns:xlink="http://www.w3.org/1999/xlink" width="136.5" height="128"><defs><style type="text/css"></style></defs><path d="M590.446104 882.239702c-8.872218-8.735722-26.684902-8.735722-35.55712-8.735722-17.812684 0-26.684902 0-35.591244 8.735722l-248.968084 131.035834c-44.463461 26.207167-71.148363 0-62.242022-43.678611L252.516972 698.789534c0-26.207167-8.872218-52.414334-26.684902-69.851654L21.327447 436.75199c-35.55712-34.942889-26.650778-69.885778 26.684902-69.885778l275.652986-43.678612c26.684902 0 53.369803-26.207167 62.242021-43.678611l124.518167-244.5661C519.29774 17.471445 537.0763 0 545.982642 0c8.872218 0 26.684902 8.735722 35.55712 34.942889l124.518166 244.5661c8.872218 17.471445 35.55712 43.678611 62.242021 43.678611l275.652987 43.678612c53.335679 8.735722 62.242021 43.678611 26.684901 69.885778l-204.538747 192.18589c-17.77856 17.437321-26.684902 52.38021-26.684902 69.851654l44.463462 270.807391c8.872218 43.678611-17.744436 69.885778-62.242021 43.678611l-231.189525-131.035834z" p-id="41958"></path><path d="M545.982642 873.50398c-17.505568 0-26.275415 0-35.011137 8.735722l-245.00971 131.035834c-43.712735 26.207167-69.954026 0-61.218304-43.678611l43.746859-270.807391c0-26.207167-8.735722-52.414334-26.275415-69.851654L21.020332 436.75199c-34.977013-34.942889-26.241291-69.885778 26.275414-69.885778l271.216878-43.678612c26.275415 0 52.516705-26.207167 61.252428-43.678611l122.504855-244.5661C510.971505 17.471445 528.511198 0 537.24692 0" p-id="41959"></path></svg>