<?xml version="1.0" standalone="no"?><!DOCTYPE svg PUBLIC "-//W3C//DTD SVG 1.1//EN" "http://www.w3.org/Graphics/SVG/1.1/DTD/svg11.dtd"><svg t="1608019879043" class="icon" viewBox="0 0 1024 1024" version="1.1" xmlns="http://www.w3.org/2000/svg" p-id="35212" xmlns:xlink="http://www.w3.org/1999/xlink" width="128" height="128"><defs><style type="text/css"></style></defs><path d="M0.04309 864.354637v98.637114c0 33.447879 27.389718 60.837597 60.837597 60.837597h98.125156a73.295225 73.295225 0 0 0 73.380552-73.295226v-73.892509a73.295225 73.295225 0 0 0-73.380552-73.209899H60.880687a61.178902 61.178902 0 0 0-60.837597 60.837597z m960.005333-60.837597H359.095835a73.295225 73.295225 0 0 0-73.209899 73.295226v73.807182c0 40.529956 32.76527 73.295225 73.209899 73.295226h600.952588a61.093576 61.093576 0 0 0 60.837597-60.837597v-98.637114a61.093576 61.093576 0 0 0-60.837597-60.922923zM0.04309 462.468128v98.722439c0 33.362553 27.389718 60.752271 60.837597 60.752271h98.125156a73.295225 73.295225 0 0 0 73.380552-73.209899v-73.892509a73.295225 73.295225 0 0 0-73.380552-73.295225H60.880687A61.178902 61.178902 0 0 0 0.04309 462.553454z m960.005333-60.837597H359.095835a73.295225 73.295225 0 0 0-73.209899 73.380551v73.807183c0 40.44463 32.76527 73.295225 73.209899 73.295226h600.952588a61.093576 61.093576 0 0 0 60.837597-60.837597V462.63878a61.093576 61.093576 0 0 0-60.837597-60.922923zM0.04309 60.837597v98.637113c0 33.533206 27.389718 60.837597 60.837597 60.837597h98.125156a73.295225 73.295225 0 0 0 73.380552-73.295225V73.380552A73.295225 73.295225 0 0 0 158.920517 0H60.880687A61.093576 61.093576 0 0 0 0.04309 60.837597zM960.048423 0H359.095835a73.295225 73.295225 0 0 0-73.209899 73.295225v73.807183c0 40.529956 32.76527 73.380552 73.209899 73.380552h600.952588c33.362553 0 60.837597-27.304391 60.837597-60.837597V60.837597A61.093576 61.093576 0 0 0 959.963096 0z" p-id="35213"></path></svg>