<?xml version="1.0" standalone="no"?><!DOCTYPE svg PUBLIC "-//W3C//DTD SVG 1.1//EN" "http://www.w3.org/Graphics/SVG/1.1/DTD/svg11.dtd"><svg t="1608019340885" class="icon" viewBox="0 0 1024 1024" version="1.1" xmlns="http://www.w3.org/2000/svg" p-id="20110" xmlns:xlink="http://www.w3.org/1999/xlink" width="128" height="128"><defs><style type="text/css"></style></defs><path d="M315.076923 527.753846c-55.138462 0-102.4 23.630769-141.784615 70.892308h-70.892308c-31.507692 0-55.138462-7.876923-70.892308-23.630769-15.753846-15.753846-31.507692-31.507692-31.507692-63.015385 0-126.030769 23.630769-189.046154 63.015385-189.046154 0 0 7.876923 0 23.630769 7.876923s31.507692 15.753846 55.138461 23.630769c23.630769 7.876923 39.384615 7.876923 63.015385 7.876924 23.630769 0 47.261538-7.876923 70.892308-15.753847v31.507693c-7.876923 63.015385 7.876923 110.276923 39.384615 149.661538z m-15.753846-433.230769c23.630769 23.630769 39.384615 55.138462 39.384615 94.523077s-15.753846 70.892308-39.384615 94.523077c-23.630769 23.630769-55.138462 39.384615-94.523077 39.384615s-70.892308-15.753846-94.523077-39.384615-39.384615-55.138462-39.384615-94.523077 15.753846-70.892308 39.384615-94.523077 55.138462-39.384615 94.523077-39.384615 63.015385 15.753846 94.523077 39.384615z m575.015385 771.938461c0 39.384615-15.753846 78.769231-39.384616 102.4s-63.015385 39.384615-102.4 39.384616H267.815385c-39.384615 0-78.769231-15.753846-102.4-39.384616-23.630769-23.630769-39.384615-55.138462-39.384616-102.4v-55.138461c0-15.753846 0-39.384615 7.876923-55.138462 0-23.630769 7.876923-39.384615 15.753846-55.138461 7.876923-15.753846 15.753846-31.507692 23.63077-55.138462s23.630769-31.507692 31.507692-39.384615c15.753846-7.876923 23.630769-23.630769 47.261538-31.507692 15.753846-7.876923 39.384615-7.876923 55.138462-7.876923 0 0 7.876923 0 23.630769 7.876923 7.876923 7.876923 23.630769 15.753846 39.384616 23.630769 15.753846 7.876923 31.507692 15.753846 55.138461 23.630769 23.630769 7.876923 47.261538 7.876923 70.892308 7.876923 23.630769 0 47.261538 0 70.892308-7.876923 23.630769-7.876923 39.384615-15.753846 55.138461-23.630769 15.753846-7.876923 23.630769-15.753846 39.384615-23.630769 7.876923-7.876923 15.753846-7.876923 23.63077-7.876923 23.630769 0 39.384615 0 55.138461 7.876923 15.753846 7.876923 31.507692 15.753846 47.261539 31.507692 15.753846 15.753846 23.630769 23.630769 31.507692 39.384615 7.876923 15.753846 15.753846 31.507692 23.630769 55.138462 7.876923 15.753846 7.876923 39.384615 15.753846 55.138461 0 23.630769 7.876923 39.384615 7.876923 55.138462s7.876923 31.507692 7.876924 55.138461zM645.907692 252.061538c39.384615 39.384615 63.015385 86.646154 63.015385 141.784616s-23.630769 102.4-63.015385 141.784615-86.646154 63.015385-141.784615 63.015385-102.4-23.630769-141.784615-63.015385-63.015385-86.646154-63.015385-141.784615 23.630769-102.4 63.015385-141.784616 86.646154-63.015385 141.784615-63.015384 102.4 23.630769 141.784615 63.015384z m259.938462-157.538461c23.630769 23.630769 39.384615 55.138462 39.384615 94.523077s-15.753846 70.892308-39.384615 94.523077c-23.630769 23.630769-55.138462 39.384615-94.523077 39.384615s-70.892308-15.753846-94.523077-39.384615c-23.630769-23.630769-39.384615-55.138462-39.384615-94.523077s15.753846-70.892308 39.384615-94.523077c23.630769-23.630769 55.138462-39.384615 94.523077-39.384615s70.892308 15.753846 94.523077 39.384615z m110.276923 417.476923c0 23.630769-7.876923 47.261538-31.507692 63.015385-15.753846 15.753846-47.261538 23.630769-70.892308 23.630769h-70.892308c-39.384615-39.384615-86.646154-63.015385-141.784615-70.892308 31.507692-39.384615 39.384615-86.646154 39.384615-133.907692v-31.507692c23.630769 7.876923 47.261538 15.753846 70.892308 15.753846 23.630769 0 39.384615 0 63.015385-7.876923 23.630769-7.876923 39.384615-15.753846 55.138461-23.63077s23.630769-7.876923 23.630769-7.876923c39.384615-15.753846 63.015385 47.261538 63.015385 173.292308z" p-id="20111"></path></svg>