<?xml version="1.0" standalone="no"?><!DOCTYPE svg PUBLIC "-//W3C//DTD SVG 1.1//EN" "http://www.w3.org/Graphics/SVG/1.1/DTD/svg11.dtd"><svg t="1607584011075" class="icon" viewBox="0 0 1024 1024" version="1.1" xmlns="http://www.w3.org/2000/svg" p-id="47292" xmlns:xlink="http://www.w3.org/1999/xlink" width="128" height="128"><defs><style type="text/css"></style></defs><path d="M190.7 783.4c-11.9 11.8-11.9 28.3 0 40 11.9 11.8 28.7 11.8 40.6 0 11.9-11.8 11.9-28.3 0-40.00000001-11.9-9.4-31-9.4-40.6 1e-8z m81.3 80.1c-33.4 33-88.4 33-121.8 0s-33.4-87.1 0-120.1l296.19999999-292c-35.8-82.4-19.1-181.3 50.20000001-249.59999999 59.7-58.9 145.7-80.1 222.10000001-58.90000001 38.2 9.4-203 160.1-100.30000001 259C721 503.1 871.5 265.3 881.1 303c21.5 75.4 0 160.1-59.7 219-69.3 68.3-169.6 82.4-253.2 49.5l-296.2 292z" fill="#4D4D4D" p-id="47293"></path></svg>