<?xml version="1.0" standalone="no"?><!DOCTYPE svg PUBLIC "-//W3C//DTD SVG 1.1//EN" "http://www.w3.org/Graphics/SVG/1.1/DTD/svg11.dtd"><svg t="1607333016699" class="icon" viewBox="0 0 1024 1024" version="1.1" xmlns="http://www.w3.org/2000/svg" p-id="42181" xmlns:xlink="http://www.w3.org/1999/xlink" width="200" height="200"><defs><style type="text/css"></style></defs><path d="M85.504 888.32l111.104-115.712c-66.048-91.648-55.808-218.624 25.6-298.496l88.576-88.576 67.072 67.072 67.072-67.072 48.128 48.128-67.072 66.56 100.352 100.352 69.632-69.632 45.056 46.08-71.168 71.168 62.464 62.464-88.576 88.576c-44.544 44.544-104.96 70.144-165.376 70.144-51.2 0-96.768-15.36-133.632-44.544l-110.592 110.592-48.64-47.104z m189.44-361.984c-61.952 61.952-64 160.768-4.608 220.16l5.12 5.12v0.512c24.576 28.672 62.464 44.544 107.008 44.544 39.936 0 80.896-17.92 112.64-49.664l35.84-35.84-220.16-220.16-35.84 35.328z m121.856-227.84l89.088-83.968c44.544-44.544 104.448-69.632 164.864-69.632 51.2 0 97.28 15.36 133.632 44.544L890.88 88.064l47.616 47.616-106.496 106.496c66.048 91.648 55.808 218.624-25.6 298.496L722.944 624.64 396.8 298.496z m326.144 220.672l31.232-31.232c32.256-32.256 50.688-75.776 49.664-119.296-0.512-38.912-16.384-74.752-44.544-100.864l-5.12-5.12v-0.512c-24.576-28.672-62.464-44.544-107.008-44.544-39.936 0-80.896 17.92-112.64 49.664l-31.232 31.232 219.648 220.672z" p-id="42182"></path></svg>