<?xml version="1.0" standalone="no"?><!DOCTYPE svg PUBLIC "-//W3C//DTD SVG 1.1//EN" "http://www.w3.org/Graphics/SVG/1.1/DTD/svg11.dtd"><svg t="1607332346002" class="icon" viewBox="0 0 1024 1024" version="1.1" xmlns="http://www.w3.org/2000/svg" p-id="38704" xmlns:xlink="http://www.w3.org/1999/xlink" width="200" height="200"><defs><style type="text/css"></style></defs><path d="M706.730667 796.672v167.082667h-43.178667a85.333333 85.333333 0 0 1-85.333333-85.333334V700.330667c134.570667 13.226667 233.557333-72.533333 297.130666-257.28a85.333333 85.333333 0 0 1 80.64-57.514667h65.621334c-19.285333 186.282667-147.797333 346.965333-314.88 411.136z m-385.450667 0C147.797333 732.501333 25.6 571.818667 0 385.536h17.408a170.666667 170.666667 0 0 1 153.002667 95.061333c81.578667 165.205333 172.544 238.421333 272.896 219.733334v178.090666a85.333333 85.333333 0 0 1-85.333334 85.333334h-36.693333V796.672zM655.36 0c102.826667 0 179.882667 70.656 179.882667 179.882667 0 89.941333-77.056 186.368-134.826667 237.738666-38.656 38.570667-102.912 77.141333-186.368 122.026667-83.626667-44.885333-147.797333-83.456-186.368-122.026667-64.256-57.856-134.912-147.797333-134.912-237.738666C192.768 70.656 269.824 0 372.650667 0c57.856 0 102.826667 25.685333 141.397333 70.656C552.533333 25.685333 597.504 0 655.36 0z" p-id="38705"></path></svg>